<svg width="10.000000" height="19.000000" viewBox="0 0 10 19" fill="none" xmlns="http://www.w3.org/2000/svg" xmlns:xlink="http://www.w3.org/1999/xlink">
	<desc>
			Created with Pixso.
	</desc>
	<defs/>
	<path id="Path" d="M8.29 13.29C8.68 12.9 9.31 12.9 9.7 13.29C10.06 13.65 10.09 14.22 9.79 14.61L9.7 14.7L5.7 18.7C5.31 19.09 4.68 19.09 4.29 18.7L0.29 14.7L0.2 14.61C-0.1 14.22 -0.07 13.65 0.29 13.29C0.65 12.93 1.22 12.9 1.61 13.2L1.7 13.29L4 15.58L4 1C4 0.44 4.44 0 5 0C5.55 0 6 0.44 6 1L6 15.58L8.29 13.29Z" fill="#1972F7" fill-opacity="1.000000" fill-rule="evenodd"/>
	<path id="Path" d="" fill="#979797" fill-opacity="0" fill-rule="evenodd"/>
</svg>
